<mxfile host="Electron" modified="2024-05-20T20:38:04.067Z" agent="Mozilla/5.0 (Macintosh; Intel Mac OS X 10_15_7) AppleWebKit/537.36 (KHTML, like Gecko) draw.io/24.0.4 Chrome/120.0.6099.109 Electron/28.1.0 Safari/537.36" etag="M3n-zMR1y3cnfJ_vLPUB" version="24.0.4" type="device">
  <diagram name="Page-1" id="MM_NPqNjvnKf9ExK_jxn">
    <mxGraphModel dx="1298" dy="1828" grid="1" gridSize="10" guides="1" tooltips="1" connect="1" arrows="1" fold="1" page="1" pageScale="1" pageWidth="850" pageHeight="1100" math="0" shadow="0">
      <root>
        <mxCell id="0" />
        <mxCell id="1" parent="0" />
        <mxCell id="jLFIqo31lngknNNwk_IB-82" value="" style="verticalLabelPosition=bottom;verticalAlign=top;html=1;shape=mxgraph.basic.rect;fillColor2=none;strokeWidth=1;size=20;indent=5;" parent="1" vertex="1">
          <mxGeometry x="167" y="-270" width="1310" height="1240" as="geometry" />
        </mxCell>
        <mxCell id="jLFIqo31lngknNNwk_IB-63" value="" style="rounded=0;whiteSpace=wrap;html=1;fillColor=none;" parent="1" vertex="1">
          <mxGeometry x="825" y="81" width="240" height="110" as="geometry" />
        </mxCell>
        <mxCell id="jLFIqo31lngknNNwk_IB-75" value="" style="rounded=0;whiteSpace=wrap;html=1;fillColor=none;" parent="1" vertex="1">
          <mxGeometry x="1084" y="81" width="240" height="110" as="geometry" />
        </mxCell>
        <mxCell id="jLFIqo31lngknNNwk_IB-60" value="" style="rounded=0;whiteSpace=wrap;html=1;fillColor=none;" parent="1" vertex="1">
          <mxGeometry x="425" y="81" width="380" height="110" as="geometry" />
        </mxCell>
        <mxCell id="jLFIqo31lngknNNwk_IB-39" style="edgeStyle=orthogonalEdgeStyle;rounded=0;orthogonalLoop=1;jettySize=auto;html=1;dashed=1;" parent="1" source="jLFIqo31lngknNNwk_IB-13" edge="1">
          <mxGeometry relative="1" as="geometry">
            <mxPoint x="450" y="445" as="targetPoint" />
          </mxGeometry>
        </mxCell>
        <mxCell id="jLFIqo31lngknNNwk_IB-14" value="SNS" style="sketch=0;points=[[0,0,0],[0.25,0,0],[0.5,0,0],[0.75,0,0],[1,0,0],[0,1,0],[0.25,1,0],[0.5,1,0],[0.75,1,0],[1,1,0],[0,0.25,0],[0,0.5,0],[0,0.75,0],[1,0.25,0],[1,0.5,0],[1,0.75,0]];outlineConnect=0;fontColor=#232F3E;fillColor=#E7157B;strokeColor=#ffffff;dashed=0;verticalLabelPosition=top;verticalAlign=bottom;align=center;html=1;fontSize=12;fontStyle=0;aspect=fixed;shape=mxgraph.aws4.resourceIcon;resIcon=mxgraph.aws4.sns;labelPosition=center;" parent="1" vertex="1">
          <mxGeometry x="1179" y="127" width="50" height="50" as="geometry" />
        </mxCell>
        <mxCell id="jLFIqo31lngknNNwk_IB-22" value="KMS" style="outlineConnect=0;dashed=0;verticalLabelPosition=top;verticalAlign=bottom;align=center;html=1;shape=mxgraph.aws3.kms;fillColor=#759C3E;gradientColor=none;labelPosition=center;" parent="1" vertex="1">
          <mxGeometry x="548" y="127" width="50" height="50" as="geometry" />
        </mxCell>
        <mxCell id="jLFIqo31lngknNNwk_IB-24" value="Policy" style="sketch=0;outlineConnect=0;fontColor=#232F3E;gradientColor=none;fillColor=#7AA116;strokeColor=none;dashed=0;verticalLabelPosition=top;verticalAlign=bottom;align=center;html=1;fontSize=12;fontStyle=0;aspect=fixed;pointerEvents=1;shape=mxgraph.aws4.policy;labelPosition=center;" parent="1" vertex="1">
          <mxGeometry x="716" y="127" width="50" height="50" as="geometry" />
        </mxCell>
        <mxCell id="jLFIqo31lngknNNwk_IB-25" value="Lambda Role" style="sketch=0;outlineConnect=0;fontColor=#232F3E;gradientColor=none;fillColor=#DD344C;strokeColor=none;dashed=0;verticalLabelPosition=top;verticalAlign=bottom;align=center;html=1;fontSize=12;fontStyle=0;aspect=fixed;pointerEvents=1;shape=mxgraph.aws4.role;labelPosition=center;" parent="1" vertex="1">
          <mxGeometry x="632.25" y="127" width="50" height="50" as="geometry" />
        </mxCell>
        <mxCell id="jLFIqo31lngknNNwk_IB-28" value="AWS Step Functions workflow" style="points=[[0,0],[0.25,0],[0.5,0],[0.75,0],[1,0],[1,0.25],[1,0.5],[1,0.75],[1,1],[0.75,1],[0.5,1],[0.25,1],[0,1],[0,0.75],[0,0.5],[0,0.25]];outlineConnect=0;gradientColor=none;html=1;whiteSpace=wrap;fontSize=12;fontStyle=0;container=1;pointerEvents=0;collapsible=0;recursiveResize=0;shape=mxgraph.aws4.group;grIcon=mxgraph.aws4.group_aws_step_functions_workflow;strokeColor=#CD2264;fillColor=none;verticalAlign=top;align=left;spacingLeft=30;fontColor=#CD2264;dashed=0;" parent="1" vertex="1">
          <mxGeometry x="428" y="380" width="622" height="170" as="geometry" />
        </mxCell>
        <mxCell id="jLFIqo31lngknNNwk_IB-52" value="" style="outlineConnect=0;dashed=0;verticalLabelPosition=bottom;verticalAlign=top;align=center;html=1;shape=mxgraph.aws3.kms;fillColor=#759C3E;gradientColor=none;" parent="jLFIqo31lngknNNwk_IB-28" vertex="1">
          <mxGeometry x="58" y="31" width="18" height="20" as="geometry" />
        </mxCell>
        <mxCell id="jLFIqo31lngknNNwk_IB-51" value="" style="outlineConnect=0;dashed=0;verticalLabelPosition=bottom;verticalAlign=top;align=center;html=1;shape=mxgraph.aws3.kms;fillColor=#759C3E;gradientColor=none;" parent="jLFIqo31lngknNNwk_IB-28" vertex="1">
          <mxGeometry x="147" y="31" width="18" height="20" as="geometry" />
        </mxCell>
        <mxCell id="jLFIqo31lngknNNwk_IB-50" value="" style="outlineConnect=0;dashed=0;verticalLabelPosition=bottom;verticalAlign=top;align=center;html=1;shape=mxgraph.aws3.kms;fillColor=#759C3E;gradientColor=none;" parent="jLFIqo31lngknNNwk_IB-28" vertex="1">
          <mxGeometry x="255" y="31" width="18" height="20" as="geometry" />
        </mxCell>
        <mxCell id="jLFIqo31lngknNNwk_IB-49" value="" style="outlineConnect=0;dashed=0;verticalLabelPosition=bottom;verticalAlign=top;align=center;html=1;shape=mxgraph.aws3.kms;fillColor=#759C3E;gradientColor=none;" parent="jLFIqo31lngknNNwk_IB-28" vertex="1">
          <mxGeometry x="369.75" y="31" width="18" height="20" as="geometry" />
        </mxCell>
        <mxCell id="jLFIqo31lngknNNwk_IB-42" value="" style="outlineConnect=0;dashed=0;verticalLabelPosition=bottom;verticalAlign=top;align=center;html=1;shape=mxgraph.aws3.kms;fillColor=#759C3E;gradientColor=none;" parent="jLFIqo31lngknNNwk_IB-28" vertex="1">
          <mxGeometry x="479.75" y="31" width="18" height="20" as="geometry" />
        </mxCell>
        <mxCell id="jLFIqo31lngknNNwk_IB-54" value="" style="outlineConnect=0;dashed=0;verticalLabelPosition=bottom;verticalAlign=top;align=center;html=1;shape=mxgraph.aws3.kms;fillColor=#759C3E;gradientColor=none;" parent="jLFIqo31lngknNNwk_IB-28" vertex="1">
          <mxGeometry x="579.75" y="31" width="18" height="20" as="geometry" />
        </mxCell>
        <mxCell id="jLFIqo31lngknNNwk_IB-31" value="Security Hub" style="sketch=0;points=[[0,0,0],[0.25,0,0],[0.5,0,0],[0.75,0,0],[1,0,0],[0,1,0],[0.25,1,0],[0.5,1,0],[0.75,1,0],[1,1,0],[0,0.25,0],[0,0.5,0],[0,0.75,0],[1,0.25,0],[1,0.5,0],[1,0.75,0]];outlineConnect=0;fontColor=#232F3E;fillColor=#DD344C;strokeColor=#ffffff;dashed=0;verticalLabelPosition=top;verticalAlign=bottom;align=center;html=1;fontSize=12;fontStyle=0;aspect=fixed;shape=mxgraph.aws4.resourceIcon;resIcon=mxgraph.aws4.security_hub;labelPosition=center;" parent="1" vertex="1">
          <mxGeometry x="450" y="127" width="50" height="50" as="geometry" />
        </mxCell>
        <mxCell id="jLFIqo31lngknNNwk_IB-32" style="edgeStyle=orthogonalEdgeStyle;rounded=0;orthogonalLoop=1;jettySize=auto;html=1;exitX=0.5;exitY=1;exitDx=0;exitDy=0;exitPerimeter=0;entryX=0.5;entryY=0;entryDx=0;entryDy=0;entryPerimeter=0;startArrow=classic;startFill=1;" parent="1" source="jLFIqo31lngknNNwk_IB-31" edge="1">
          <mxGeometry relative="1" as="geometry">
            <mxPoint x="475" y="420" as="targetPoint" />
          </mxGeometry>
        </mxCell>
        <mxCell id="jLFIqo31lngknNNwk_IB-34" style="edgeStyle=orthogonalEdgeStyle;rounded=0;orthogonalLoop=1;jettySize=auto;html=1;startArrow=blockThin;startFill=1;exitX=1;exitY=0.5;exitDx=0;exitDy=0;exitPerimeter=0;" parent="1" target="l4PLYabUeJfXLHg1CRiP-2" edge="1">
          <mxGeometry relative="1" as="geometry">
            <mxPoint x="703" y="691" as="targetPoint" />
            <Array as="points">
              <mxPoint x="610" y="445" />
              <mxPoint x="610" y="691" />
            </Array>
            <mxPoint x="590" y="445" as="sourcePoint" />
          </mxGeometry>
        </mxCell>
        <mxCell id="jLFIqo31lngknNNwk_IB-35" style="edgeStyle=orthogonalEdgeStyle;rounded=0;orthogonalLoop=1;jettySize=auto;html=1;startArrow=blockThin;startFill=1;exitX=1;exitY=0.5;exitDx=0;exitDy=0;exitPerimeter=0;" parent="1" target="l4PLYabUeJfXLHg1CRiP-2" edge="1">
          <mxGeometry relative="1" as="geometry">
            <mxPoint x="693.0000000000005" y="445" as="sourcePoint" />
            <mxPoint x="717.5" y="671" as="targetPoint" />
            <Array as="points">
              <mxPoint x="718" y="445" />
            </Array>
          </mxGeometry>
        </mxCell>
        <mxCell id="jLFIqo31lngknNNwk_IB-36" style="edgeStyle=orthogonalEdgeStyle;rounded=0;orthogonalLoop=1;jettySize=auto;html=1;startArrow=blockThin;startFill=1;entryX=0.75;entryY=0;entryDx=0;entryDy=0;entryPerimeter=0;exitX=0;exitY=0.5;exitDx=0;exitDy=0;exitPerimeter=0;" parent="1" edge="1">
          <mxGeometry relative="1" as="geometry">
            <mxPoint x="762" y="445" as="sourcePoint" />
            <mxPoint x="740.5" y="671" as="targetPoint" />
            <Array as="points">
              <mxPoint x="741" y="445" />
              <mxPoint x="741" y="516" />
            </Array>
          </mxGeometry>
        </mxCell>
        <mxCell id="jLFIqo31lngknNNwk_IB-37" style="edgeStyle=orthogonalEdgeStyle;rounded=0;orthogonalLoop=1;jettySize=auto;html=1;startArrow=blockThin;startFill=1;exitX=0;exitY=0.5;exitDx=0;exitDy=0;exitPerimeter=0;" parent="1" target="l4PLYabUeJfXLHg1CRiP-2" edge="1">
          <mxGeometry relative="1" as="geometry">
            <mxPoint x="869.75" y="445" as="sourcePoint" />
            <mxPoint x="753" y="691.0909090909086" as="targetPoint" />
            <Array as="points">
              <mxPoint x="848" y="445" />
              <mxPoint x="848" y="691" />
            </Array>
          </mxGeometry>
        </mxCell>
        <mxCell id="jLFIqo31lngknNNwk_IB-38" style="edgeStyle=orthogonalEdgeStyle;rounded=0;orthogonalLoop=1;jettySize=auto;html=1;startArrow=blockThin;startFill=1;exitX=0;exitY=0.5;exitDx=0;exitDy=0;exitPerimeter=0;" parent="1" target="l4PLYabUeJfXLHg1CRiP-2" edge="1">
          <mxGeometry relative="1" as="geometry">
            <mxPoint x="967.75" y="445" as="sourcePoint" />
            <mxPoint x="753" y="708.5" as="targetPoint" />
            <Array as="points">
              <mxPoint x="948" y="445" />
              <mxPoint x="948" y="708" />
            </Array>
          </mxGeometry>
        </mxCell>
        <mxCell id="jLFIqo31lngknNNwk_IB-55" value="" style="outlineConnect=0;dashed=0;verticalLabelPosition=bottom;verticalAlign=top;align=center;html=1;shape=mxgraph.aws3.kms;fillColor=#759C3E;gradientColor=none;" parent="1" vertex="1">
          <mxGeometry x="1215" y="121" width="18" height="20" as="geometry" />
        </mxCell>
        <mxCell id="jLFIqo31lngknNNwk_IB-57" value="" style="outlineConnect=0;dashed=0;verticalLabelPosition=bottom;verticalAlign=top;align=center;html=1;shape=mxgraph.aws3.kms;fillColor=#759C3E;gradientColor=none;" parent="1" vertex="1">
          <mxGeometry x="898" y="121" width="18" height="20" as="geometry" />
        </mxCell>
        <mxCell id="jLFIqo31lngknNNwk_IB-58" value="CloudWatch&lt;div&gt;Logs&lt;/div&gt;" style="sketch=0;points=[[0,0,0],[0.25,0,0],[0.5,0,0],[0.75,0,0],[1,0,0],[0,1,0],[0.25,1,0],[0.5,1,0],[0.75,1,0],[1,1,0],[0,0.25,0],[0,0.5,0],[0,0.75,0],[1,0.25,0],[1,0.5,0],[1,0.75,0]];points=[[0,0,0],[0.25,0,0],[0.5,0,0],[0.75,0,0],[1,0,0],[0,1,0],[0.25,1,0],[0.5,1,0],[0.75,1,0],[1,1,0],[0,0.25,0],[0,0.5,0],[0,0.75,0],[1,0.25,0],[1,0.5,0],[1,0.75,0]];outlineConnect=0;fontColor=#232F3E;fillColor=#E7157B;strokeColor=#ffffff;dashed=0;verticalLabelPosition=top;verticalAlign=bottom;align=center;html=1;fontSize=12;fontStyle=0;aspect=fixed;shape=mxgraph.aws4.resourceIcon;resIcon=mxgraph.aws4.cloudwatch_2;labelPosition=center;" parent="1" vertex="1">
          <mxGeometry x="965" y="127" width="50" height="50" as="geometry" />
        </mxCell>
        <mxCell id="jLFIqo31lngknNNwk_IB-59" value="" style="outlineConnect=0;dashed=0;verticalLabelPosition=bottom;verticalAlign=top;align=center;html=1;shape=mxgraph.aws3.kms;fillColor=#759C3E;gradientColor=none;" parent="1" vertex="1">
          <mxGeometry x="1006" y="121" width="18" height="20" as="geometry" />
        </mxCell>
        <mxCell id="jLFIqo31lngknNNwk_IB-62" value="IAM and Security" style="rounded=0;whiteSpace=wrap;html=1;" parent="1" vertex="1">
          <mxGeometry x="425" y="65" width="380" height="20" as="geometry" />
        </mxCell>
        <mxCell id="jLFIqo31lngknNNwk_IB-68" value="Audit" style="rounded=0;whiteSpace=wrap;html=1;" parent="1" vertex="1">
          <mxGeometry x="825" y="65" width="240" height="20" as="geometry" />
        </mxCell>
        <mxCell id="jLFIqo31lngknNNwk_IB-76" value="Notifications" style="rounded=0;whiteSpace=wrap;html=1;" parent="1" vertex="1">
          <mxGeometry x="1084" y="65" width="240" height="20" as="geometry" />
        </mxCell>
        <mxCell id="jLFIqo31lngknNNwk_IB-77" value="VPC" style="sketch=0;outlineConnect=0;gradientColor=none;html=1;whiteSpace=wrap;fontSize=12;fontStyle=0;shape=mxgraph.aws4.group;grIcon=mxgraph.aws4.group_vpc;strokeColor=#879196;fillColor=none;verticalAlign=top;align=left;spacingLeft=30;fontColor=#879196;dashed=0;" parent="1" vertex="1">
          <mxGeometry x="369" y="330" width="761" height="450" as="geometry" />
        </mxCell>
        <mxCell id="jLFIqo31lngknNNwk_IB-81" style="edgeStyle=orthogonalEdgeStyle;rounded=0;orthogonalLoop=1;jettySize=auto;html=1;exitX=1;exitY=0.5;exitDx=0;exitDy=0;entryX=0.5;entryY=1;entryDx=0;entryDy=0;entryPerimeter=0;" parent="1" source="jLFIqo31lngknNNwk_IB-28" target="jLFIqo31lngknNNwk_IB-14" edge="1">
          <mxGeometry relative="1" as="geometry" />
        </mxCell>
        <mxCell id="jLFIqo31lngknNNwk_IB-85" value="Security Hub Compliance Analyzer&lt;div&gt;Created by Rick Kidder&lt;/div&gt;&lt;div&gt;Last Updated May 2nd, 2024&lt;/div&gt;" style="strokeWidth=1;shadow=0;dashed=0;align=left;html=1;shape=mxgraph.mockup.text.textBox;fontColor=#666666;align=left;fontSize=17;spacingLeft=4;spacingTop=-3;whiteSpace=wrap;strokeColor=#666666;mainText=" parent="1" vertex="1">
          <mxGeometry x="1192" y="-270" width="285" height="90" as="geometry" />
        </mxCell>
        <mxCell id="l4PLYabUeJfXLHg1CRiP-7" value="AWS Account" style="points=[[0,0],[0.25,0],[0.5,0],[0.75,0],[1,0],[1,0.25],[1,0.5],[1,0.75],[1,1],[0.75,1],[0.5,1],[0.25,1],[0,1],[0,0.75],[0,0.5],[0,0.25]];outlineConnect=0;gradientColor=none;html=1;whiteSpace=wrap;fontSize=12;fontStyle=0;container=1;pointerEvents=0;collapsible=0;recursiveResize=0;shape=mxgraph.aws4.group;grIcon=mxgraph.aws4.group_account;strokeColor=#CD2264;fillColor=none;verticalAlign=top;align=center;spacingLeft=30;fontColor=#CD2264;dashed=0;labelPosition=center;verticalLabelPosition=bottom;" parent="1" vertex="1">
          <mxGeometry x="207" y="-140" width="1223" height="1070" as="geometry" />
        </mxCell>
        <mxCell id="l4PLYabUeJfXLHg1CRiP-2" value="VPC Endpoint" style="sketch=0;outlineConnect=0;fontColor=#232F3E;gradientColor=none;fillColor=#8C4FFF;strokeColor=none;dashed=0;verticalLabelPosition=bottom;verticalAlign=top;align=center;html=1;fontSize=12;fontStyle=0;aspect=fixed;pointerEvents=1;shape=mxgraph.aws4.endpoint;" parent="l4PLYabUeJfXLHg1CRiP-7" vertex="1">
          <mxGeometry x="496" y="810" width="50" height="50" as="geometry" />
        </mxCell>
        <mxCell id="jLFIqo31lngknNNwk_IB-13" value="EventBridge" style="sketch=0;points=[[0,0,0],[0.25,0,0],[0.5,0,0],[0.75,0,0],[1,0,0],[0,1,0],[0.25,1,0],[0.5,1,0],[0.75,1,0],[1,1,0],[0,0.25,0],[0,0.5,0],[0,0.75,0],[1,0.25,0],[1,0.5,0],[1,0.75,0]];outlineConnect=0;fontColor=#232F3E;fillColor=#E7157B;strokeColor=#ffffff;dashed=0;verticalLabelPosition=bottom;verticalAlign=top;align=center;html=1;fontSize=12;fontStyle=0;aspect=fixed;shape=mxgraph.aws4.resourceIcon;resIcon=mxgraph.aws4.eventbridge;" parent="l4PLYabUeJfXLHg1CRiP-7" vertex="1">
          <mxGeometry x="45" y="560" width="50" height="50" as="geometry" />
        </mxCell>
        <mxCell id="l4PLYabUeJfXLHg1CRiP-4" value="S3 Bucket&lt;div&gt;&lt;br&gt;&lt;/div&gt;" style="sketch=0;points=[[0,0,0],[0.25,0,0],[0.5,0,0],[0.75,0,0],[1,0,0],[0,1,0],[0.25,1,0],[0.5,1,0],[0.75,1,0],[1,1,0],[0,0.25,0],[0,0.5,0],[0,0.75,0],[1,0.25,0],[1,0.5,0],[1,0.75,0]];outlineConnect=0;fontColor=#232F3E;fillColor=#7AA116;strokeColor=#ffffff;dashed=0;verticalLabelPosition=bottom;verticalAlign=top;align=center;html=1;fontSize=12;fontStyle=0;aspect=fixed;shape=mxgraph.aws4.resourceIcon;resIcon=mxgraph.aws4.s3;" parent="l4PLYabUeJfXLHg1CRiP-7" vertex="1">
          <mxGeometry x="496" y="962" width="50" height="50" as="geometry" />
        </mxCell>
        <mxCell id="l4PLYabUeJfXLHg1CRiP-5" style="edgeStyle=orthogonalEdgeStyle;rounded=0;orthogonalLoop=1;jettySize=auto;html=1;startArrow=classic;startFill=1;" parent="l4PLYabUeJfXLHg1CRiP-7" source="l4PLYabUeJfXLHg1CRiP-4" target="l4PLYabUeJfXLHg1CRiP-2" edge="1">
          <mxGeometry relative="1" as="geometry" />
        </mxCell>
        <mxCell id="jLFIqo31lngknNNwk_IB-56" value="" style="outlineConnect=0;dashed=0;verticalLabelPosition=bottom;verticalAlign=top;align=center;html=1;shape=mxgraph.aws3.kms;fillColor=#759C3E;gradientColor=none;" parent="l4PLYabUeJfXLHg1CRiP-7" vertex="1">
          <mxGeometry x="536" y="952" width="18" height="20" as="geometry" />
        </mxCell>
        <mxCell id="l4PLYabUeJfXLHg1CRiP-8" value="Step Function" style="sketch=0;points=[[0,0,0],[0.25,0,0],[0.5,0,0],[0.75,0,0],[1,0,0],[0,1,0],[0.25,1,0],[0.5,1,0],[0.75,1,0],[1,1,0],[0,0.25,0],[0,0.5,0],[0,0.75,0],[1,0.25,0],[1,0.5,0],[1,0.75,0]];outlineConnect=0;fontColor=#232F3E;fillColor=#E7157B;strokeColor=#ffffff;dashed=0;verticalLabelPosition=bottom;verticalAlign=top;align=center;html=1;fontSize=12;fontStyle=0;aspect=fixed;shape=mxgraph.aws4.resourceIcon;resIcon=mxgraph.aws4.step_functions;" parent="l4PLYabUeJfXLHg1CRiP-7" vertex="1">
          <mxGeometry x="44" y="640" width="50" height="50" as="geometry" />
        </mxCell>
        <mxCell id="jLFIqo31lngknNNwk_IB-1" value="Region" style="points=[[0,0],[0.25,0],[0.5,0],[0.75,0],[1,0],[1,0.25],[1,0.5],[1,0.75],[1,1],[0.75,1],[0.5,1],[0.25,1],[0,1],[0,0.75],[0,0.5],[0,0.25]];outlineConnect=0;gradientColor=none;html=1;whiteSpace=wrap;fontSize=12;fontStyle=0;container=1;pointerEvents=0;collapsible=0;recursiveResize=0;shape=mxgraph.aws4.group;grIcon=mxgraph.aws4.group_region;strokeColor=#00A4A6;fillColor=none;verticalAlign=top;align=left;spacingLeft=30;fontColor=#147EBA;dashed=1;" parent="l4PLYabUeJfXLHg1CRiP-7" vertex="1">
          <mxGeometry x="26.12" y="26.5" width="1169.88" height="1013.5" as="geometry" />
        </mxCell>
        <mxCell id="l4PLYabUeJfXLHg1CRiP-14" value="Config&lt;div&gt;Scrape&lt;/div&gt;" style="sketch=0;outlineConnect=0;fontColor=#232F3E;gradientColor=none;fillColor=#ED7100;strokeColor=none;dashed=0;verticalLabelPosition=bottom;verticalAlign=top;align=center;html=1;fontSize=12;fontStyle=0;aspect=fixed;pointerEvents=1;shape=mxgraph.aws4.lambda_function;" parent="jLFIqo31lngknNNwk_IB-1" vertex="1">
          <mxGeometry x="216.88" y="533.5" width="50" height="50" as="geometry" />
        </mxCell>
        <mxCell id="l4PLYabUeJfXLHg1CRiP-17" value="Parse NIST&lt;br&gt;Controls" style="sketch=0;outlineConnect=0;fontColor=#232F3E;gradientColor=none;fillColor=#ED7100;strokeColor=none;dashed=0;verticalLabelPosition=bottom;verticalAlign=top;align=center;html=1;fontSize=12;fontStyle=0;aspect=fixed;pointerEvents=1;shape=mxgraph.aws4.lambda_function;" parent="jLFIqo31lngknNNwk_IB-1" vertex="1">
          <mxGeometry x="309.88" y="533.5" width="50" height="50" as="geometry" />
        </mxCell>
        <mxCell id="l4PLYabUeJfXLHg1CRiP-15" value="Create&lt;div&gt;Summary&lt;/div&gt;" style="sketch=0;outlineConnect=0;fontColor=#232F3E;gradientColor=none;fillColor=#ED7100;strokeColor=none;dashed=0;verticalLabelPosition=bottom;verticalAlign=top;align=center;html=1;fontSize=12;fontStyle=0;aspect=fixed;pointerEvents=1;shape=mxgraph.aws4.lambda_function;" parent="jLFIqo31lngknNNwk_IB-1" vertex="1">
          <mxGeometry x="406.88" y="533.5" width="50" height="50" as="geometry" />
        </mxCell>
        <mxCell id="l4PLYabUeJfXLHg1CRiP-18" value="Create&lt;div&gt;OCSF&lt;/div&gt;" style="sketch=0;outlineConnect=0;fontColor=#232F3E;gradientColor=none;fillColor=#ED7100;strokeColor=none;dashed=0;verticalLabelPosition=bottom;verticalAlign=top;align=center;html=1;fontSize=12;fontStyle=0;aspect=fixed;pointerEvents=1;shape=mxgraph.aws4.lambda_function;" parent="jLFIqo31lngknNNwk_IB-1" vertex="1">
          <mxGeometry x="636.88" y="533.5" width="50" height="50" as="geometry" />
        </mxCell>
        <mxCell id="l4PLYabUeJfXLHg1CRiP-16" value="Create&lt;div&gt;OSCAL&lt;/div&gt;" style="sketch=0;outlineConnect=0;fontColor=#232F3E;gradientColor=none;fillColor=#ED7100;strokeColor=none;dashed=0;verticalLabelPosition=bottom;verticalAlign=top;align=center;html=1;fontSize=12;fontStyle=0;aspect=fixed;pointerEvents=1;shape=mxgraph.aws4.lambda_function;" parent="jLFIqo31lngknNNwk_IB-1" vertex="1">
          <mxGeometry x="733.88" y="533.5" width="50" height="50" as="geometry" />
        </mxCell>
        <mxCell id="l4PLYabUeJfXLHg1CRiP-22" value="VPC&lt;div&gt;Flow Logs&lt;/div&gt;" style="sketch=0;outlineConnect=0;fontColor=#232F3E;gradientColor=none;fillColor=#8C4FFF;strokeColor=none;dashed=0;verticalLabelPosition=top;verticalAlign=bottom;align=center;html=1;fontSize=12;fontStyle=0;aspect=fixed;pointerEvents=1;shape=mxgraph.aws4.flow_logs;labelPosition=center;" parent="jLFIqo31lngknNNwk_IB-1" vertex="1">
          <mxGeometry x="626.88" y="243.5" width="50" height="50" as="geometry" />
        </mxCell>
        <mxCell id="l4PLYabUeJfXLHg1CRiP-24" value="&lt;span style=&quot;color: rgba(0, 0, 0, 0); font-family: monospace; font-size: 0px; text-align: start; text-wrap: nowrap;&quot;&gt;%3CmxGraphModel%3E%3Croot%3E%3CmxCell%20id%3D%220%22%2F%3E%3CmxCell%20id%3D%221%22%20parent%3D%220%22%2F%3E%3CmxCell%20id%3D%222%22%20value%3D%22Config%26lt%3Bdiv%26gt%3BScrape%26lt%3B%2Fdiv%26gt%3B%22%20style%3D%22sketch%3D0%3BoutlineConnect%3D0%3BfontColor%3D%23232F3E%3BgradientColor%3Dnone%3BfillColor%3D%23ED7100%3BstrokeColor%3Dnone%3Bdashed%3D0%3BverticalLabelPosition%3Dbottom%3BverticalAlign%3Dtop%3Balign%3Dcenter%3Bhtml%3D1%3BfontSize%3D12%3BfontStyle%3D0%3Baspect%3Dfixed%3BpointerEvents%3D1%3Bshape%3Dmxgraph.aws4.lambda_function%3B%22%20vertex%3D%221%22%20parent%3D%221%22%3E%3CmxGeometry%20x%3D%22-475%22%20y%3D%22127%22%20width%3D%2250%22%20height%3D%2250%22%20as%3D%22geometry%22%2F%3E%3C%2FmxCell%3E%3C%2Froot%3E%3C%2FmxGraphModel%E3EE&lt;/span&gt;Endpoint Security Group" style="fontStyle=0;verticalAlign=top;align=center;spacingTop=-2;fillColor=none;rounded=0;whiteSpace=wrap;html=1;strokeColor=#FF0000;strokeWidth=2;dashed=1;container=1;collapsible=0;expand=0;recursiveResize=0;labelPosition=center;verticalLabelPosition=bottom;" parent="jLFIqo31lngknNNwk_IB-1" vertex="1">
          <mxGeometry x="416.88" y="770" width="153.12" height="93.5" as="geometry" />
        </mxCell>
        <mxCell id="jLFIqo31lngknNNwk_IB-2" value="Availability zone" style="sketch=0;outlineConnect=0;gradientColor=none;html=1;whiteSpace=wrap;fontSize=12;fontStyle=0;shape=mxgraph.aws4.group;grIcon=mxgraph.aws4.group_availability_zone;strokeColor=#545B64;fillColor=none;verticalAlign=top;align=left;spacingLeft=30;fontColor=#545B64;dashed=1;" parent="l4PLYabUeJfXLHg1CRiP-24" vertex="1">
          <mxGeometry x="-307" y="-352.5" width="817" height="492.5" as="geometry" />
        </mxCell>
        <mxCell id="l4PLYabUeJfXLHg1CRiP-9" style="edgeStyle=orthogonalEdgeStyle;rounded=0;orthogonalLoop=1;jettySize=auto;html=1;startArrow=blockThin;startFill=1;exitX=1;exitY=0.5;exitDx=0;exitDy=0;exitPerimeter=0;" parent="1" target="l4PLYabUeJfXLHg1CRiP-2" edge="1">
          <mxGeometry relative="1" as="geometry">
            <mxPoint x="700" y="710" as="targetPoint" />
            <Array as="points">
              <mxPoint x="520" y="445" />
              <mxPoint x="520" y="710" />
            </Array>
            <mxPoint x="500" y="445" as="sourcePoint" />
          </mxGeometry>
        </mxCell>
        <mxCell id="l4PLYabUeJfXLHg1CRiP-11" style="edgeStyle=orthogonalEdgeStyle;rounded=0;orthogonalLoop=1;jettySize=auto;html=1;dashed=1;" parent="1" source="l4PLYabUeJfXLHg1CRiP-8" target="jLFIqo31lngknNNwk_IB-28" edge="1">
          <mxGeometry relative="1" as="geometry">
            <Array as="points">
              <mxPoint x="390" y="525" />
              <mxPoint x="390" y="525" />
            </Array>
          </mxGeometry>
        </mxCell>
        <mxCell id="jLFIqo31lngknNNwk_IB-26" value="&lt;span style=&quot;color: rgba(0, 0, 0, 0); font-family: monospace; font-size: 0px; text-align: start; text-wrap: nowrap;&quot;&gt;%3CmxGraphModel%3E%3Croot%3E%3CmxCell%20id%3D%220%22%2F%3E%3CmxCell%20id%3D%221%22%20parent%3D%220%22%2F%3E%3CmxCell%20id%3D%222%22%20value%3D%22Config%26lt%3Bdiv%26gt%3BScrape%26lt%3B%2Fdiv%26gt%3B%22%20style%3D%22sketch%3D0%3BoutlineConnect%3D0%3BfontColor%3D%23232F3E%3BgradientColor%3Dnone%3BfillColor%3D%23ED7100%3BstrokeColor%3Dnone%3Bdashed%3D0%3BverticalLabelPosition%3Dbottom%3BverticalAlign%3Dtop%3Balign%3Dcenter%3Bhtml%3D1%3BfontSize%3D12%3BfontStyle%3D0%3Baspect%3Dfixed%3BpointerEvents%3D1%3Bshape%3Dmxgraph.aws4.lambda_function%3B%22%20vertex%3D%221%22%20parent%3D%221%22%3E%3CmxGeometry%20x%3D%22-475%22%20y%3D%22127%22%20width%3D%2250%22%20height%3D%2250%22%20as%3D%22geometry%22%2F%3E%3C%2FmxCell%3E%3C%2Froot%3E%3C%2FmxGraphModel%3E&lt;/span&gt;Security Group" style="fontStyle=0;verticalAlign=top;align=center;spacingTop=-2;fillColor=none;rounded=0;whiteSpace=wrap;html=1;strokeColor=#FF0000;strokeWidth=2;dashed=1;container=1;collapsible=0;expand=0;recursiveResize=0;" parent="1" vertex="1">
          <mxGeometry x="399" y="359.82" width="680" height="210.37" as="geometry" />
        </mxCell>
        <mxCell id="l4PLYabUeJfXLHg1CRiP-19" value="Package&lt;div&gt;Artifacts&lt;/div&gt;" style="sketch=0;outlineConnect=0;fontColor=#232F3E;gradientColor=none;fillColor=#ED7100;strokeColor=none;dashed=0;verticalLabelPosition=bottom;verticalAlign=top;align=center;html=1;fontSize=12;fontStyle=0;aspect=fixed;pointerEvents=1;shape=mxgraph.aws4.lambda_function;" parent="1" vertex="1">
          <mxGeometry x="760" y="420" width="50" height="50" as="geometry" />
        </mxCell>
      </root>
    </mxGraphModel>
  </diagram>
</mxfile>
